<?xml version="1.0" encoding="UTF-8"?>
<svg width="12px" height="13px" viewBox="0 0 12 13" version="1.1" xmlns="http://www.w3.org/2000/svg" xmlns:xlink="http://www.w3.org/1999/xlink">
    <title>icon</title>
    <g id="控件" stroke="none" stroke-width="1" fill="none" fill-rule="evenodd">
        <g id="系统功能树-列表" transform="translate(-428.000000, -332.000000)" fill="#FFFFFF" fill-rule="nonzero">
            <g id="背景" transform="translate(0.000000, 50.000000)">
                <g id="内容" transform="translate(320.250000, 10.000000)">
                    <g id="01" transform="translate(108.691895, 269.500000)">
                        <g id="icon" transform="translate(0.000000, 2.798460)">
                            <path d="M10.05,3 L7.5,0.45 C7.2,0.15 6.825,0 6.45,0 L1.5,0 C0.675,0 0,0.675 0,1.5 L0,10.5 C0,11.325 0.675,12 1.5,12 L9,12 C9.825,12 10.5,11.325 10.5,10.5 L10.5,4.05 C10.5,3.675 10.35,3.3 10.05,3 Z M6.75,0.825 C6.825,0.825 6.9,0.9 6.975,0.975 L9.525,3.525 C9.6,3.6 9.6,3.675 9.675,3.75 L6.75,3.75 L6.75,0.825 Z M9.75,10.5 C9.75,10.95 9.45,11.25 9,11.25 L1.5,11.25 C1.05,11.25 0.75,10.95 0.75,10.5 L0.75,1.5 C0.75,1.05 1.05,0.75 1.5,0.75 L6,0.75 L6,4.125 C6,4.35 6.15,4.5 6.375,4.5 L9.75,4.5 L9.75,10.5 Z M2.25,6.375 C2.25,6.6 2.4,6.75 2.625,6.75 L7.875,6.75 C8.1,6.75 8.25,6.6 8.25,6.375 C8.25,6.15 8.1,6 7.875,6 L2.625,6 C2.4,6 2.25,6.15 2.25,6.375 Z M7.875,8.25 L2.625,8.25 C2.4,8.25 2.25,8.4 2.25,8.625 C2.25,8.85 2.4,9 2.625,9 L7.875,9 C8.1,9 8.25,8.85 8.25,8.625 C8.25,8.4 8.1,8.25 7.875,8.25 Z M2.625,4.5 L4.125,4.5 C4.35,4.5 4.5,4.35 4.5,4.125 C4.5,3.9 4.35,3.75 4.125,3.75 L2.625,3.75 C2.4,3.75 2.25,3.9 2.25,4.125 C2.25,4.35 2.4,4.5 2.625,4.5 Z" id="形状"></path>
                        </g>
                    </g>
                </g>
            </g>
        </g>
    </g>
</svg>