<?xml version="1.0" encoding="UTF-8"?>
<svg width="13px" height="12px" viewBox="0 0 13 12" version="1.1" xmlns="http://www.w3.org/2000/svg" xmlns:xlink="http://www.w3.org/1999/xlink">
    <title>icon</title>
    <g id="控件" stroke="none" stroke-width="1" fill="none" fill-rule="evenodd">
        <g id="系统功能树-列表" transform="translate(-403.000000, -293.000000)" fill="#FFFFFF" fill-rule="nonzero">
            <g id="背景" transform="translate(0.000000, 50.000000)">
                <g id="内容" transform="translate(320.250000, 10.000000)">
                    <g id="01" transform="translate(60.750000, 230.500000)">
                        <g id="icon" transform="translate(22.030110, 3.211255)">
                            <path d="M11.526316,0 L11.526316,0 C11.7879243,0 12,0.212075785 12,0.473684064 L12,8.05262828 L12,8.05262828 C12,8.31423656 11.7879243,8.52631229 11.526316,8.52631229 L6.49105493,8.52631229 L6.49105493,9.78946917 L9.31579553,9.78946917 L9.3157955,9.78946917 C9.57740378,9.78946915 9.78947952,10.0015449 9.78947952,10.2631532 C9.78947953,10.5247615 9.57740378,10.7368372 9.3157955,10.7368372 L2.68421932,10.7368372 L2.6842193,10.7368372 C2.42261102,10.7368372 2.21053528,10.5247615 2.21053528,10.2631532 C2.2105353,10.0015449 2.42261102,9.78946917 2.6842193,9.78946917 L5.54368686,9.78946917 L5.54368686,8.52631229 L0.473684034,8.52631229 L0.473684013,8.52631229 C0.212075734,8.52631228 0,8.31423656 0,8.05262828 L0,0.473684064 L0,0.473684013 C0,0.212075734 0.212075734,0 0.473684013,0 L11.5263159,0 L11.526316,0 Z M11.052632,5.68420821 L0.947368109,5.68420821 L0.947368109,6.63157624 L11.052632,6.63157624 L11.052632,5.68420821 Z" id="形状"></path>
                        </g>
                    </g>
                </g>
            </g>
        </g>
    </g>
</svg>